<svg width="20" height="50" viewBox="0 0 20 50" fill="none" xmlns="http://www.w3.org/2000/svg">
<path fill-rule="evenodd" clip-rule="evenodd" d="M6.54942 2.0001H6.54951C7.04997 2.0001 7.45936 2.40948 7.45936 2.90985V13.7013H9.27914V2.90994C9.27914 2.40948 9.68853 2.0001 10.189 2.0001H10.1891C10.6896 2.0001 11.0989 2.40948 11.0989 2.90994V14.6111V14.6112C11.0989 15.1117 10.6896 15.5211 10.1891 15.5211H10.189H7.45936V46.7911C7.45936 47.2915 7.04997 47.7009 6.54951 47.7009H6.54942C6.04897 47.7009 5.63958 47.2915 5.63958 46.7911V15.5211H2.90994H2.90984C2.40939 15.5211 2 15.1117 2 14.6112V14.6111V2.90994C2 2.40948 2.40939 2.0001 2.90984 2.0001H2.90994C3.41039 2.0001 3.81979 2.40948 3.81979 2.90994V13.7013H5.63958V2.90985C5.63958 2.40948 6.04897 2.0001 6.54942 2.0001V2.0001ZM16.9592 2.00272H16.9595L16.982 2.00479H16.9827C17.4465 2.05196 17.8564 2.44419 17.7992 2.90985V46.7911C17.7992 47.2915 17.3898 47.7009 16.8894 47.7009H16.8893C16.3888 47.7009 15.9794 47.2915 15.9794 46.7911V33.388H13.2498H13.2497L13.2264 33.3877H13.2263L13.2031 33.3867H13.2029L13.1799 33.3853L13.1796 33.3853L13.157 33.3833L13.1564 33.3832L13.1342 33.3807L13.1332 33.3806C12.6792 33.323 12.2834 32.9362 12.3398 32.4781V32.478C12.3398 32.4024 12.3493 32.3289 12.3669 32.2586L15.9794 2.90985C15.9794 2.44072 16.3392 2.05149 16.7966 2.00479H16.7973L16.8195 2.00272H16.8199L16.8427 2.00131L16.8429 2.00122L16.8659 2.00038V2.00028L16.8893 2.0001V2H16.8894C16.9127 2 16.936 2.00094 16.9592 2.00272V2.00272Z" stroke="white" stroke-width="3" stroke-miterlimit="22.9256" stroke-linecap="round" stroke-linejoin="round"/>
</svg>
