<svg width="230" height="251" viewBox="0 0 230 251" fill="none" xmlns="http://www.w3.org/2000/svg">
<path d="M215.125 49.7815C208.954 38.194 201.676 26.9589 192.176 17.7994C183.542 9.47682 173.057 2.95936 160.996 1.27482C150.402 -0.182091 138.907 1.69713 130.202 8.20274C121.857 14.419 117.732 23.9423 116.135 33.9857C114.488 44.2443 114.987 54.7345 113.559 65.0491C112.955 70.1618 111.592 75.1558 109.515 79.8669C106.661 85.7586 102.606 90.9886 97.611 95.2212C86.8332 104.625 73.2176 109.608 59.953 114.4C46.6885 119.192 33.1425 124.193 21.8935 133.015C12.2626 140.425 5.35858 150.817 2.26111 162.567C-0.543718 173.604 -0.281757 185.197 3.01872 196.096C10.4334 220.643 32.2058 238.469 56.139 245.892C68.2515 249.543 80.8908 251.135 93.5303 250.602C107.008 250.227 120.344 247.741 133.051 243.233C145.826 238.57 157.744 231.318 166.633 220.905C175.054 211.041 180.557 199.157 184.906 187.019C187.118 180.865 188.981 174.605 191.007 168.393C192.967 162.283 195.906 156.533 199.709 151.365C205.807 143.137 214.003 136.654 219.628 127.998C226.481 117.424 229.516 104.251 229.051 91.7233C228.671 80.9773 225.44 70.6197 220.857 60.9281C219.07 57.1419 217.079 53.4516 215.091 49.7676C214.433 48.5284 212.559 49.6385 213.217 50.8777C217.554 59.0274 221.817 67.1953 224.337 76.1254C227.639 87.7466 227.68 100.052 224.456 111.695C222.887 117.503 220.37 123.012 217.004 127.999C214.162 132.163 210.68 135.846 207.227 139.477C203.691 143.073 200.407 146.907 197.397 150.953C193.913 155.85 191.173 161.235 189.265 166.934C187.194 173.013 185.443 179.19 183.292 185.249C181.195 191.293 178.708 197.195 175.847 202.917C169.854 214.744 161.534 225.006 150.368 232.302C138.923 239.78 125.685 244.134 112.288 246.465C99.9561 248.68 87.3672 249.087 74.9176 247.675C50.0149 244.7 25.705 232.394 12.0881 210.726C0.0521803 191.557 -1.27533 165.531 11.8854 146.512C19.5759 135.401 31.6213 128.208 43.789 122.918C57.1753 117.092 71.4349 113.381 84.4268 106.633C95.2901 100.993 105.563 92.8583 111.067 81.6741C115.568 72.5017 116.292 62.1394 116.822 52.1036C117.338 42.2868 117.504 31.9512 121.495 22.7858C125.738 13.049 134.178 6.52317 144.455 4.12509C155.206 1.67852 166.481 3.24655 176.156 8.53399C187.422 14.7321 196.386 24.353 203.617 34.8395C207.141 40.0105 210.368 45.3778 213.281 50.9154C213.964 52.0975 215.835 50.9812 215.125 49.7815Z" fill="#58BBAE"/>
</svg>
