<svg width="50" height="51" viewBox="0 0 50 51" fill="none" xmlns="http://www.w3.org/2000/svg">
<path d="M42.226 30.619C42.225 33.123 42.2238 35.5326 42.2222 35.5931C42.0211 42.7947 36.1195 48.5711 28.869 48.5711C21.6689 48.5711 15.7992 42.8749 15.5209 35.7432C15.5141 35.5675 15.5106 25.1931 15.5106 25.0154" stroke="white" stroke-width="3" stroke-miterlimit="22.9256" stroke-linecap="round" stroke-linejoin="round"/>
<path d="M42.2276 30.619C45.3223 30.619 47.8311 28.1102 47.8311 25.0155C47.8311 21.9208 45.3223 19.412 42.2276 19.412C39.1329 19.412 36.6241 21.9208 36.6241 25.0155C36.6241 28.1102 39.1329 30.619 42.2276 30.619Z" stroke="white" stroke-width="3" stroke-miterlimit="22.9256" stroke-linecap="round" stroke-linejoin="round"/>
<path d="M42.2276 27.5385C43.621 27.5385 44.7507 26.4089 44.7507 25.0154C44.7507 23.622 43.621 22.4923 42.2276 22.4923C40.8341 22.4923 39.7045 23.622 39.7045 25.0154C39.7045 26.4089 40.8341 27.5385 42.2276 27.5385Z" stroke="white" stroke-width="3" stroke-miterlimit="22.9256" stroke-linecap="round" stroke-linejoin="round"/>
<path d="M26.4624 7.04622C27.8559 7.04622 28.9856 5.91659 28.9856 4.52311C28.9856 3.12964 27.8559 2 26.4624 2C25.069 2 23.9393 3.12964 23.9393 4.52311C23.9393 5.91659 25.069 7.04622 26.4624 7.04622Z" stroke="white" stroke-width="3" stroke-miterlimit="22.9256" stroke-linecap="round" stroke-linejoin="round"/>
<path d="M4.52311 7.10005C5.91659 7.10005 7.04622 5.97042 7.04622 4.57695C7.04622 3.18347 5.91659 2.05383 4.52311 2.05383C3.12964 2.05383 2 3.18347 2 4.57695C2 5.97042 3.12964 7.10005 4.52311 7.10005Z" stroke="white" stroke-width="3" stroke-miterlimit="22.9256" stroke-linecap="round" stroke-linejoin="round"/>
<path d="M27.659 6.74475C28.3179 8.313 28.6824 10.0359 28.6824 11.8437C28.6824 19.118 22.7852 25.0153 15.5106 25.0153C8.23603 25.0153 2.33887 19.118 2.33887 11.8437C2.33887 10.0586 2.69395 8.35661 3.33744 6.8044" stroke="white" stroke-width="3" stroke-miterlimit="22.9256" stroke-linecap="round" stroke-linejoin="round"/>
</svg>
