<svg width="179" height="203" viewBox="0 0 179 203" fill="none" xmlns="http://www.w3.org/2000/svg">
<path d="M55.6861 8.90392C50.8261 11.8139 40.9061 21.3139 46.2061 29.5039C51.5061 37.6939 61.4661 41.3339 68.9561 47.5939C86.4161 62.2039 87.7061 89.5939 78.6361 110.514C69.5661 131.434 52.5061 147.514 36.7161 163.924C20.9261 180.334 5.45607 198.704 1.04607 221.034C-1.76393 235.234 0.866071 251.494 11.6361 261.174C20.3861 269.044 32.6961 271.234 44.3361 273.014C71.8661 277.224 100.496 280.864 127.176 272.854C153.856 264.844 178.106 241.984 178.746 214.144C179.316 189.034 161.686 167.774 146.676 147.634C131.666 127.494 117.876 101.774 126.926 78.3439C131.196 67.2639 140.016 58.6439 146.386 48.6139C152.756 38.5839 156.446 25.0239 149.836 15.1539C144.076 6.54392 132.746 3.96389 122.466 2.62389C95.7361 -0.846112 87.3461 0.553912 66.6861 4.52391C62.846 5.50396 59.1487 6.97616 55.6861 8.90392Z" fill="#F3ACC8"/>
</svg>
