<svg width="454" height="166" viewBox="0 0 454 166" fill="none" xmlns="http://www.w3.org/2000/svg">
<path d="M14.2588 117.204C25.9888 83.0942 53.8688 58.3942 84.8288 41.5842C117.449 23.8842 154.229 13.1342 190.739 7.07424C238.109 -0.775764 287.009 3.07424 333.279 15.3942C355.499 21.3042 377.619 28.9343 398.279 38.9943C416.089 47.6543 433.749 59.2542 443.409 77.0742C454.559 97.7042 451.779 122.344 444.779 143.834C437.979 164.654 427.329 184.304 414.779 202.204C388.919 239.074 354.079 268.654 316.249 292.654C296.075 305.304 275.216 316.828 253.769 327.174C232.039 337.804 209.979 348.174 187.019 355.874C164.649 363.364 141.209 368.014 117.539 366.674C95.3488 365.414 73.8888 358.544 55.8888 345.344C23.9988 321.944 5.68879 283.204 3.60879 244.174C2.70879 227.304 2.90879 210.344 3.60879 193.464C4.41879 174.924 5.84878 156.294 9.12878 138.004C10.3072 130.951 12.0085 123.995 14.2188 117.194C14.8388 115.354 11.9388 114.574 11.3188 116.394C5.94878 132.294 3.99879 149.454 2.44879 166.084C0.658788 185.204 -0.0912148 204.434 0.00878521 223.634C0.108785 241.324 0.858788 258.944 5.69879 276.064C11.135 295.467 20.7076 313.462 33.7588 328.814C47.1788 344.474 64.4088 356.744 83.9988 363.384C105.999 370.824 129.829 371.384 152.579 367.684C177.029 363.684 200.379 354.874 222.929 344.874C245.279 334.954 267.339 324.214 288.739 312.384C329.569 289.814 368.269 262.384 399.029 227.034C413.612 210.461 426.044 192.113 436.029 172.424C446.099 152.274 454.349 129.884 453.869 107.044C453.771 95.8401 450.942 84.8288 445.629 74.9642C440.712 66.4092 434.186 58.8873 426.409 52.8142C409.729 39.3842 389.319 31.0342 369.409 23.7042C323.669 6.85424 274.599 -1.97578 225.809 0.374224C203.895 1.57652 182.146 4.87154 160.859 10.2143C142.362 14.6294 124.248 20.5148 106.689 27.8142C73.6888 41.7342 41.4088 62.2743 22.2288 93.3543C17.7619 100.596 14.1097 108.31 11.3388 116.354C10.7288 118.234 13.6288 119.014 14.2588 117.204Z" fill="#8081BD"/>
</svg>
