<svg width="326" height="245" viewBox="0 0 326 245" fill="none" xmlns="http://www.w3.org/2000/svg">
<path d="M306.379 89.5754C314.55 76.2969 323.183 62.3734 325.342 46.6805C327.289 32.8681 323.759 16.932 312.32 7.97563C301.819 -0.279216 287.475 -0.502331 275.192 3.39609C259.082 8.51417 246.643 20.742 234.339 31.7588C211.61 52.265 184.615 67.4737 155.3 76.2887C125.984 85.1037 95.0782 87.3055 64.8091 82.7354C57.233 81.5424 49.7876 79.6727 42.2089 78.4896C35.256 77.4086 27.9779 76.7902 21.0901 78.4555C14.8075 79.8998 9.28888 83.6344 5.61233 88.9298C2.2514 93.8571 0.916807 99.8546 0.709926 105.733C0.228193 119.783 5.33695 133.611 9.67013 146.742C15.4024 164.117 22.0493 181.397 31.7984 196.933C47.065 221.287 71.7509 242.265 101.507 244.087C132.245 245.97 159.695 227.468 182.681 209.222C205.92 190.776 230.406 173.709 252.305 153.643C262.941 143.891 272.84 133.366 281.922 122.153C288.645 113.868 294.859 105.208 301.195 96.6118L306.287 89.7479C306.991 88.7993 305.661 87.494 304.948 88.4563C292.747 104.906 280.886 121.644 266.869 136.638C247.987 156.825 225.996 173.502 204.091 190.239C191.766 199.681 179.801 209.688 167.112 218.645C154.798 227.322 141.486 235.053 126.928 239.244C112.903 243.279 98.1558 243.472 84.2391 238.869C70.7326 234.403 58.7292 226.034 48.8469 215.902C37.1842 203.947 28.6576 189.349 21.9527 174.137C18.2954 165.838 15.1724 157.316 12.2915 148.717C9.78989 141.287 7.26238 133.812 5.29599 126.217C2.36375 114.838 0.134026 100.841 6.89446 90.3394C15.296 77.279 32.1627 78.4556 45.509 80.8984C52.6835 82.2112 59.7813 83.8647 67.011 84.9C74.1394 85.9191 81.3172 86.556 88.5137 86.8082C132.728 88.2401 176.271 75.7116 212.964 51.0002C219.025 46.8782 224.853 42.4236 230.422 37.6568C237.062 31.9687 243.357 25.8951 250.094 20.3271C261.667 10.7557 275.129 2.74939 290.629 2.74378C297.207 2.64898 303.669 4.47718 309.222 8.0039C315.344 12.0417 319.58 18.3688 321.808 25.2947C326.642 40.1548 322.664 55.5409 315.969 69.1018C312.64 75.85 308.695 82.2709 304.767 88.6645C304.114 89.6844 305.748 90.5905 306.379 89.5754Z" fill="white"/>
</svg>
