<svg width="405" height="402" viewBox="0 0 405 402" fill="none" xmlns="http://www.w3.org/2000/svg">
<path d="M352.12 21.4022C370.801 37.5561 389.394 55.0283 398.448 78.0399C407.501 101.052 406.705 128.85 392.059 148.723C377.629 168.349 352.769 177.274 328.789 181.542C304.808 185.81 279.989 186.567 257.049 194.759C209.855 211.602 176.929 261.914 180.378 311.9C181.408 326.836 185.322 341.54 185.235 356.512C185.148 371.485 180.051 387.66 167.41 395.686C155.698 403.129 140.612 401.851 126.922 399.527C98.3866 394.678 69.8914 386.193 46.1628 369.61C22.4342 353.028 3.90307 327.451 0.774438 298.669C-2.49802 268.689 11.4799 238.367 33.6231 217.886C55.7663 197.405 85.1834 186.086 115.003 181.617C143.116 177.399 176.598 176.365 192.128 152.568C201.77 137.769 200.82 118.794 202.978 101.261C205.136 83.7291 213.606 63.944 230.899 60.311C251.601 55.9927 275.906 76.8839 292.071 63.2515C309.52 48.5381 292.805 10.7373 313.832 1.93881C326.684 -3.43585 343.996 14.3815 352.12 21.4022Z" fill="#FDDC4E"/>
</svg>
